<?xml version="1.0" standalone="no"?>
<!DOCTYPE svg PUBLIC "-//W3C//DTD SVG 20010904//EN"
 "http://www.w3.org/TR/2001/REC-SVG-20010904/DTD/svg10.dtd">
<svg version="1.0" xmlns="http://www.w3.org/2000/svg"
 width="66.086487pt" height="66.172973pt" viewBox="0 0 66.086487 66.172973"
 preserveAspectRatio="xMidYMid meet">
<metadata>
Created by potrace 1.16, written by Peter Selinger 2001-2019
</metadata>
<g transform="translate(-2.000000,68.086487) scale(0.100000,-0.100000)"
fill="#000000" stroke="none">
<path d="M32 668 c-7 -7 -12 -38 -12 -70 l0 -58 260 0 260 0 0 -60 0 -60 -190
0 -190 0 0 -70 0 -70 190 0 190 0 0 -60 0 -60 -260 0 -260 0 0 -58 c0 -32 5
-63 12 -70 17 -17 619 -17 636 0 17 17 17 619 0 636 -17 17 -619 17 -636 0z"/>
</g>
</svg>
